<?xml version="1.0" standalone="no"?>
<!DOCTYPE svg PUBLIC "-//W3C//DTD SVG 20010904//EN"
 "http://www.w3.org/TR/2001/REC-SVG-20010904/DTD/svg10.dtd">
<svg version="1.0" xmlns="http://www.w3.org/2000/svg"
 width="561.000000pt" height="516.000000pt" viewBox="0 0 561.000000 516.000000"
 preserveAspectRatio="xMidYMid meet">
<metadata>
Created by potrace 1.13, written by Peter Selinger 2001-2015
</metadata>
<g transform="translate(0.000000,516.000000) scale(0.100000,-0.100000)"
fill="#000000" stroke="none">
<path d="M2981 5001 c-27 -27 -44 -94 -38 -155 28 -308 47 -680 47 -950 l0
-308 25 -19 c71 -57 120 -248 96 -381 -7 -40 -27 -170 -45 -288 -32 -209 -33
-220 -25 -395 10 -210 5 -229 -82 -310 -59 -55 -121 -85 -194 -92 -95 -10
-181 51 -244 175 l-27 53 -17 -40 c-10 -22 -32 -50 -48 -62 -26 -18 -40 -21
-95 -16 -35 2 -75 12 -88 20 -44 30 -123 244 -447 1222 -128 385 -239 720
-248 744 -22 63 -79 121 -120 121 -47 0 -91 -27 -107 -65 -18 -44 -18 -135 0
-205 36 -137 111 -564 175 -985 29 -194 30 -218 41 -760 6 -308 15 -632 19
-720 l8 -160 41 -87 c44 -90 66 -113 144 -148 123 -54 342 -23 559 80 47 22
66 27 76 18 27 -22 12 -40 -60 -73 -296 -134 -546 -143 -681 -24 l-38 33 6
-109 c13 -210 11 -416 -7 -530 -9 -60 -18 -124 -20 -141 l-3 -32 145 -32 c80
-17 210 -47 288 -65 282 -67 442 -66 631 5 108 41 240 110 267 140 12 13 16
73 21 321 l7 304 -72 17 c-40 9 -105 33 -144 53 -87 43 -201 133 -205 162 -6
39 26 34 80 -13 152 -130 334 -182 509 -145 151 32 459 240 572 386 188 243
203 257 494 453 264 177 292 200 386 314 26 31 113 110 193 175 81 65 158 127
171 139 l26 20 -32 37 c-18 20 -57 48 -88 63 -134 66 -355 9 -514 -133 -87
-77 -126 -101 -205 -122 -82 -23 -169 -60 -364 -153 l-144 -69 -25 19 c-45 33
-84 186 -121 469 -11 87 -29 212 -40 278 -11 66 -33 317 -50 560 -24 357 -36
480 -64 650 -45 269 -57 324 -112 530 -50 184 -64 219 -93 235 -33 17 -99 12
-120 -9z"/>
<path d="M2720 3564 c-53 -19 -91 -44 -143 -93 l-38 -36 2 -535 c3 -478 5
-539 20 -575 24 -57 74 -122 112 -145 66 -41 174 -16 250 58 67 65 68 69 61
284 -6 190 -5 196 32 423 46 279 51 362 29 447 -32 127 -91 179 -209 185 -48
2 -85 -2 -116 -13z"/>
<path d="M2180 3486 c-71 -38 -136 -101 -167 -164 -26 -53 -28 -65 -26 -163 1
-105 3 -111 73 -315 147 -426 201 -560 227 -567 90 -26 115 -17 149 56 46 103
57 170 50 317 -3 74 -9 267 -12 427 l-7 293 -48 49 c-53 54 -120 91 -165 91
-16 -1 -49 -12 -74 -24z"/>
</g>
</svg>
